<svg width="145" height="33" viewBox="0 0 145 33" fill="none" xmlns="http://www.w3.org/2000/svg">
<g id="Frame">
<path id="Vector" d="M141.199 26.6812V22.5942C139.214 22.7144 138.1 22.5942 138.1 21.3036V15.9829H141.199V11.6555H138.1V7.44832L133.581 8.80221V11.6492H131.176V15.9829H133.581V21.3036C133.581 25.5107 135.306 27.2822 141.199 26.6812ZM126.346 17.6057H119.88C120.301 16.0746 121.444 15.2332 123.159 15.2332C124.51 15.2269 125.865 15.8595 126.346 17.6057ZM123.52 27.0956C126.368 27.0956 128.599 26.0453 130.074 24.0018L126.466 21.9267C126.088 22.3031 125.637 22.5985 125.141 22.7948C124.645 22.9911 124.113 23.0843 123.58 23.0687C121.925 23.0687 120.542 22.5278 119.972 20.9651H130.644C130.767 20.372 130.827 19.7677 130.824 19.162C130.824 14.6258 127.577 11.2285 123.188 11.2285C118.44 11.2285 115.19 14.6859 115.19 19.162C115.19 23.6381 118.39 27.1019 123.52 27.1019V27.0956ZM103.464 26.6748V18.4787C103.464 16.3435 104.607 15.3819 106.262 15.3819C107.705 15.3819 108.876 16.2549 108.876 18.1181V26.6812H113.386V17.457C113.386 13.3985 110.8 11.2348 107.765 11.2348C105.781 11.2348 104.284 11.956 103.464 13.0695V11.6555H98.9545V26.6812L103.464 26.6748ZM96.7549 26.6748V11.6555H92.245V26.6812L96.7549 26.6748ZM94.5015 10.3269C95.0377 10.3288 95.5623 10.1714 96.0088 9.87484C96.4553 9.57823 96.8036 9.15574 97.0094 8.66096C97.2153 8.16619 97.2695 7.62143 97.1652 7.09582C97.0608 6.57021 96.8026 6.08743 96.4233 5.70874C96.044 5.33005 95.5606 5.07251 95.0346 4.96882C94.5087 4.86512 93.9637 4.91994 93.4689 5.1263C92.9742 5.33267 92.5519 5.68129 92.2556 6.12793C91.9594 6.57457 91.8026 7.09909 91.8051 7.63495C91.8141 8.34724 92.101 9.02787 92.6047 9.53187C93.1083 10.0359 93.7889 10.3234 94.5015 10.3332V10.3269ZM90.2227 26.6812V22.5942C88.2384 22.7144 87.1243 22.5942 87.1243 21.3036V15.9829H90.2227V11.6555H87.1243V7.44832L82.6271 8.80221V11.6492H80.2219V15.9829H82.6271V21.3036C82.6271 25.5107 84.3393 27.2822 90.2227 26.6812ZM71.6199 22.8346C69.5469 22.8346 68.0436 21.4238 68.0436 19.1683C68.0436 16.9129 69.5469 15.5021 71.6199 15.5021C73.6928 15.5021 75.1993 16.9161 75.1993 19.1683C75.1993 21.4206 73.696 22.8346 71.6199 22.8346ZM63.5338 32.6914H68.0436V25.2703C69.0342 26.4123 70.509 27.1019 72.5219 27.1019C76.4621 27.1019 79.7092 23.6476 79.7092 19.1683C79.7092 14.6891 76.4621 11.2348 72.5219 11.2348C70.509 11.2348 69.0405 11.9275 68.0436 13.0695V11.6555H63.5338M50.6181 22.4107C47.1906 22.4107 44.4847 19.918 44.4847 16.16C44.4847 12.402 47.1811 9.91252 50.6181 9.91252C54.0551 9.91252 56.7515 12.4084 56.7515 16.1759C56.7515 19.9433 54.0456 22.4139 50.6181 22.4139V22.4107ZM50.6181 27.0987C52.0574 27.1109 53.4846 26.8368 54.8169 26.2924C56.1492 25.748 57.3598 24.9442 58.3782 23.9277C59.3967 22.9111 60.2027 21.7023 60.7493 20.3715C61.2959 19.0406 61.5722 17.6144 61.5621 16.1759C61.5621 13.2747 60.409 10.4924 58.3567 8.44104C56.3043 6.38964 53.5206 5.23717 50.6181 5.23717C47.7156 5.23717 44.9319 6.38964 42.8796 8.44104C40.8272 10.4924 39.6741 13.2747 39.6741 16.1759C39.6632 17.6148 39.9388 19.0415 40.4851 20.3729C41.0314 21.7043 41.8373 22.9137 42.8559 23.9307C43.8745 24.9476 45.0854 25.7517 46.4181 26.2962C47.7507 26.8406 49.1785 27.1145 50.6181 27.1019V27.0987Z" fill="white"/>
<path id="Vector_2" opacity="0.3" d="M20.4357 16.2866C23.6135 13.9255 27.3893 12.501 31.3354 12.1743C31.3164 12.1015 31.2942 12.0288 31.2721 11.956C28.5528 11.5377 26.0381 10.2624 24.0946 8.31582C22.1511 6.36927 20.8803 3.85325 20.4674 1.13439L20.2806 1.08061C19.9391 5.02599 18.4985 8.7968 16.1221 11.9655C17.3475 13.6032 18.8 15.0581 20.4357 16.2866Z" fill="#42EA95"/>
<path id="Vector_3" opacity="0.3" d="M11.6938 16.3657C8.51594 18.7288 4.73858 20.1535 0.791016 20.4779C0.813169 20.5507 0.832158 20.6235 0.854312 20.6962C3.57319 21.1144 6.08747 22.3892 8.03092 24.3352C9.97437 26.2811 11.2455 28.7964 11.659 31.5147L11.8584 31.5716C12.1987 27.628 13.6371 23.8584 16.0107 20.6899C14.7841 19.0512 13.3306 17.5952 11.6938 16.3657Z" fill="#42EA95"/>
<path id="Vector_4" d="M16.065 0.508119C14.676 0.507521 13.2928 0.688305 11.9507 1.04588L11.7671 1.09966C11.3601 3.84479 10.0782 6.38555 8.11185 8.34472C6.14546 10.3039 3.5994 11.577 0.851647 11.9751L0.788351 12.1902C0.0562268 14.9011 0.0562268 17.7576 0.788351 20.4685C4.73592 20.1441 8.51328 18.7193 11.6912 16.3562C13.3741 15.1125 14.8667 13.6302 16.1219 11.9561C18.4967 8.79005 19.9372 5.02275 20.2805 1.08068C18.9076 0.700387 17.4896 0.507782 16.065 0.508119Z" fill="url(#paint0_linear_4_4756)"/>
<path id="Vector_5" d="M31.3347 12.1806C26.3236 12.6029 21.6224 14.7795 18.0594 18.3268C14.4965 21.8742 12.3005 26.5646 11.8584 31.5716C13.2283 31.9503 14.6431 32.1418 16.0644 32.141C17.4535 32.1421 18.8367 31.9613 20.1787 31.6033L20.3718 31.5463C20.7794 28.8033 22.0603 26.2646 24.0247 24.3063C25.9891 22.348 28.5324 21.0743 31.2778 20.6741C31.2967 20.6013 31.3189 20.5317 31.3379 20.459C32.0743 17.7486 32.0743 14.891 31.3379 12.1806H31.3347Z" fill="url(#paint1_linear_4_4756)"/>
</g>
<defs>
<linearGradient id="paint0_linear_4_4756" x1="12.7894" y1="13.0443" x2="5.31768" y2="5.51834" gradientUnits="userSpaceOnUse">
<stop stop-color="#42EA95"/>
<stop offset="0.57" stop-color="#2BDDBA"/>
<stop offset="0.72" stop-color="#25DAC4"/>
<stop offset="1" stop-color="#03C7FD"/>
</linearGradient>
<linearGradient id="paint1_linear_4_4756" x1="18.0615" y1="18.8836" x2="26.5524" y2="26.0747" gradientUnits="userSpaceOnUse">
<stop stop-color="#42EA95"/>
<stop offset="0.68" stop-color="#25DAC4"/>
<stop offset="1" stop-color="#03C7FD"/>
</linearGradient>
</defs>
</svg>
